<?xml version="1.0" encoding="UTF-8"?><svg id="Ebene_2" xmlns="http://www.w3.org/2000/svg" viewBox="0 0 386 428"><defs><style>.cls-1,.cls-2{stroke-miterlimit:10;}.cls-1,.cls-2,.cls-3{stroke-width:12px;}.cls-1,.cls-3{fill:none;stroke:#009fe3;}.cls-2{fill:#1d71b8;stroke:#1d71b8;}.cls-3{stroke-linecap:round;stroke-linejoin:round;}</style></defs><polyline class="cls-1" points="116.2 194 117.69 232.4 100.84 252.22"/><path class="cls-3" d="m327.97,379.04s-44.44-87.35-44.44-100.01,48.02-70.86,40.79-122.38c-8.25-58.76-48.14-109.45-125.83-109.45s-127.26,62.71-127.26,108.88c0,0-.39,5.63,2.8,12.93s3.5,14.27.88,21.18c-2.62,6.91-27.28,46.49-23.7,54.09,3.58,7.6,24.54,3.83,26.98,12.36s-11.94,20.38-7.44,27.87c4.5,7.49,11.47,6.53,11.47,14.25s-17.23,28.1-1.44,37.42c15.78,9.32,120.21-119.89,135.76-116.52,15.55,3.37,14.27,7.89,14.86,15.24s3.11,33.48,0,37.61c-5.43,7.19-67.2,64.22-71.25,72.52s-2.56,23.07-2.56,23.07"/><path class="cls-3" d="m137.01,62.45s46.86,51.06,48.84,54.53c2.31,4.04,64.13,1.21,67.1.97,3.46-.29,19.04-14.6,21.31-15.61s31.51.6,31.51.6"/><polyline class="cls-3" points="212.4 73.7 221.5 83.51 136.02 163.78 117.69 147.18 104.56 149.41 103.82 190.29 131.56 197.22 188.3 148.66 219.3 149.9 219.77 217.52"/><polyline class="cls-3" points="219.35 157.81 263.37 158.08 289.63 132.06 315.89 131.07"/><polyline class="cls-3" points="231.36 234.15 264.11 233.39 286.9 211.1 315.89 211.34"/><polyline class="cls-3" points="249.21 299.59 231.43 310.93 232.13 348.73 204.76 367.31"/><polyline class="cls-3" points="232.55 334.87 258.31 333.89 285.12 365.48"/><circle class="cls-2" cx="208.34" cy="69.8" r="5.64"/><circle class="cls-2" cx="103.82" cy="248.73" r="6.16"/><circle class="cls-2" cx="157.39" cy="371.08" r="6.56"/><circle class="cls-2" cx="288.53" cy="371.08" r="6.56"/><circle class="cls-2" cx="199.4" cy="371.08" r="6.56"/><circle class="cls-2" cx="255.22" cy="295.61" r="6.47"/></svg>